<?xml version="1.0" encoding="UTF-8" standalone="no"?>
<!-- Created with Inkscape (http://www.inkscape.org/) -->

<svg
   xmlns:dc="http://purl.org/dc/elements/1.1/"
   xmlns:cc="http://creativecommons.org/ns#"
   xmlns:rdf="http://www.w3.org/1999/02/22-rdf-syntax-ns#"
   xmlns:svg="http://www.w3.org/2000/svg"
   xmlns="http://www.w3.org/2000/svg"
   xmlns:xlink="http://www.w3.org/1999/xlink"
   xmlns:sodipodi="http://sodipodi.sourceforge.net/DTD/sodipodi-0.dtd"
   xmlns:inkscape="http://www.inkscape.org/namespaces/inkscape"
   width="5.8024998mm"
   height="9.2229996mm"
   viewBox="0 0 5.8024998 9.2229996"
   version="1.1"
   id="svg923"
   inkscape:version="0.92.4 (5da689c313, 2019-01-14)"
   sodipodi:docname="autofill-icon-glow.svg">
  <defs
     id="defs917">
    <g
       id="d">
      <path
         id="path925"
         d="m 58.1,15.2 q -4.85,-2.05 -10.2,-2.05 -5.35,0 -10.2,2.05 -4.7,2 -8.35,5.65 -3.65,3.65 -5.7,8.4 -2.05,4.9 -2.05,10.2 0,5.7 2.35,10.9 2.35,5.2 6.55,8.95 2.6,2.6 3.45,8.1 0.25,1.75 0.3,3.55 0,1.45 -0.05,1.5 0,0.75 0.45,1.25 0.25,0.2 0.55,0.3 0.3,0.15 0.6,0.15 H 60 q 0.7,0 1.15,-0.45 0.5,-0.5 0.5,-1.25 -0.15,-2.3 0.25,-5.05 0.8,-5.5 3.45,-8.1 L 65.6,59 q 4.15,-3.8 6.45,-8.9 2.3,-5.1 2.3,-10.6 0,-5.3 -2.1,-10.2 -2,-4.75 -5.65,-8.4 -3.65,-3.65 -8.4,-5.65 M 47.9,16.3 q 4.7,0 9,1.8 4.15,1.75 7.35,4.95 3.2,3.2 4.95,7.35 1.8,4.3 1.8,9.05 0,5 -2.05,9.6 -2.05,4.55 -5.8,7.8 -0.3,0.3 -0.3,0.4 -2.4,2.6 -3.55,7.15 -0.8,3.05 -0.9,6.5 h -21 q -0.1,-3.55 -0.9,-6.65 -1.2,-4.7 -3.8,-7.4 -3.8,-3.25 -5.9,-7.8 -2.1,-4.6 -2.1,-9.6 0,-4.75 1.85,-9.05 1.75,-4.15 4.95,-7.35 3.2,-3.2 7.35,-4.95 4.3,-1.8 9,-1.8 z"
         inkscape:connector-curvature="0"
         style="fill:#7238a3" />
    </g>
    <g
       id="c">
      <path
         id="path928"
         d="m 46.6,22.6 q 0.5,0.5 1.15,0.5 3.5,0 6.7,1.35 3.1,1.3 5.5,3.7 2.4,2.4 3.7,5.5 1.35,3.2 1.35,6.65 0,0.65 0.45,1.15 0.5,0.5 1.15,0.5 0.65,0 1.1,-0.5 0.5,-0.5 0.5,-1.15 0.05,-4.15 -1.55,-7.95 -1.55,-3.65 -4.35,-6.5 -2.85,-2.85 -6.55,-4.4 -3.8,-1.6 -8,-1.6 -0.65,0 -1.15,0.5 -0.45,0.5 -0.45,1.1 0,0.65 0.45,1.15 z"
         inkscape:connector-curvature="0"
         style="fill:#7238a3" />
    </g>
    <g
       id="b">
      <path
         id="path931"
         d="m 33.3,79.8 q 0,1.65 1.15,2.85 1.2,1.15 2.8,1.15 h 21 q 1.75,-0.05 2.9,-1.2 1.2,-1.15 1.2,-2.8 0,-1.6 -1.2,-2.8 -1.15,-1.15 -2.8,-1.15 h -21 q -1.6,0 -2.8,1.15 -1.15,1.2 -1.15,2.8 m 3.4,-0.65 q 0.2,-0.2 0.55,-0.2 h 21 q 0.3,0 0.55,0.2 0.2,0.25 0.2,0.6 0,0.35 -0.15,0.55 -0.2,0.2 -0.5,0.2 h -21 q -0.25,0 -0.5,-0.2 -0.25,-0.25 -0.25,-0.55 0,-0.4 0.2,-0.6 z"
         inkscape:connector-curvature="0"
         style="fill:#7238a3" />
    </g>
    <g
       id="a">
      <path
         id="path934"
         d="m 37.6,92.2 q 1.15,1.15 2.8,1.15 h 14.8 q 1.6,0 2.8,-1.15 1.15,-1.15 1.15,-2.8 0,-1.7 -1.15,-2.85 Q 56.85,85.4 55.2,85.4 H 40.4 q -1.65,0 -2.8,1.2 -1.2,1.15 -1.2,2.8 0,1.65 1.2,2.8 m 2.25,-3.45 q 0.2,-0.2 0.55,-0.2 h 14.8 q 0.3,0 0.5,0.2 0.25,0.2 0.25,0.55 0,0.35 -0.25,0.55 -0.2,0.2 -0.5,0.2 H 40.4 q -0.3,0 -0.5,-0.2 -0.25,-0.2 -0.25,-0.55 0,-0.35 0.2,-0.55 z"
         inkscape:connector-curvature="0"
         style="fill:#7238a3" />
    </g>
  </defs>
  <sodipodi:namedview
     id="base"
     pagecolor="#ffffff"
     bordercolor="#666666"
     borderopacity="1.0"
     inkscape:pageopacity="0.0"
     inkscape:pageshadow="2"
     inkscape:zoom="11.2"
     inkscape:cx="-25.308375"
     inkscape:cy="23.938721"
     inkscape:document-units="mm"
     inkscape:current-layer="layer1"
     showgrid="false"
     inkscape:window-width="1920"
     inkscape:window-height="1017"
     inkscape:window-x="-8"
     inkscape:window-y="-8"
     inkscape:window-maximized="1" />
  <metadata
     id="metadata920">
    <rdf:RDF>
      <cc:Work
         rdf:about="">
        <dc:format>image/svg+xml</dc:format>
        <dc:type
           rdf:resource="http://purl.org/dc/dcmitype/StillImage" />
        <dc:title></dc:title>
      </cc:Work>
    </rdf:RDF>
  </metadata>
  <g
     inkscape:label="Layer 1"
     inkscape:groupmode="layer"
     id="layer1"
     transform="translate(-52.283274,-111.71588)">
    <g
       id="g957"
       transform="translate(47.961774,105.69238)">
      <g
         id="g955"
         transform="matrix(-0.11,0,0,0.115,12.5,4.77)">
        <g
           id="g941"
           transform="translate(0,-2.25)">
          <use
             id="use939"
             xlink:href="#d"
             height="100%"
             width="100%"
             x="0"
             y="0" />
        </g>
        <g
           id="g949"
           transform="translate(0,-2.25)"
           style="display:inline">
          <use
             id="use947"
             xlink:href="#b"
             height="100%"
             width="100%"
             x="0"
             y="0" />
        </g>
        <g
           id="g953"
           transform="translate(0,-2.25)"
           style="display:inline">
          <use
             id="use951"
             xlink:href="#a"
             height="100%"
             width="100%"
             x="0"
             y="0" />
        </g>
      </g>
    </g>
    <path
       style="opacity:1;vector-effect:none;fill:#7238a3;fill-opacity:1;stroke:none;stroke-width:0.00149439;stroke-linecap:butt;stroke-linejoin:miter;stroke-miterlimit:4;stroke-dasharray:none;stroke-dashoffset:0;stroke-opacity:1"
       d="m 54.038226,118.16203 c -0.03648,-0.43528 -0.169219,-0.90288 -0.332058,-1.16973 -0.04592,-0.0753 -0.173533,-0.23401 -0.283578,-0.35278 -0.390941,-0.42195 -0.610913,-0.84658 -0.712674,-1.37575 -0.04968,-0.25835 -0.05025,-0.77182 -0.0011,-1.03062 0.266897,-1.40637 1.549041,-2.33738 2.902284,-2.10747 1.18133,0.20071 2.05749,1.227 2.111275,2.47302 0.03355,0.77708 -0.209427,1.44136 -0.726078,1.98512 -0.09919,0.10439 -0.223912,0.25258 -0.27718,0.32932 -0.1788,0.25758 -0.306799,0.67246 -0.358562,1.16221 l -0.02868,0.27137 -1.138641,0.005 -1.138642,0.005 z m -0.769867,-3.18097 c 0.02511,-0.0297 0.04498,-0.11262 0.05505,-0.22957 0.05764,-0.66959 0.341441,-1.18953 0.844093,-1.54648 0.273778,-0.19443 0.680686,-0.33231 0.984612,-0.33366 0.09611,-4.4e-4 0.131792,-0.0122 0.178109,-0.0587 0.107799,-0.10838 0.05452,-0.2964 -0.0944,-0.3331 -0.08967,-0.0221 -0.469407,0.0349 -0.68111,0.10231 -0.416853,0.13257 -0.801433,0.39574 -1.071504,0.73323 -0.18273,0.22835 -0.390157,0.63604 -0.458211,0.90062 -0.06061,0.23564 -0.08457,0.69128 -0.03922,0.74603 0.08286,0.10005 0.207364,0.10864 0.282588,0.0195 z"
       id="path983"
       inkscape:connector-curvature="0" />
  </g>
</svg>
