<svg width="5.82mm" height="9.26mm" version="1.1" viewBox="0 0 5.82 9.26" xmlns="http://www.w3.org/2000/svg" xmlns:xlink="http://www.w3.org/1999/xlink">
 <defs>
  <g id="d">
   <path fill="#7238a3" d="m58.1 15.2q-4.85-2.05-10.2-2.05t-10.2 2.05q-4.7 2-8.35 5.65t-5.7 8.4q-2.05 4.9-2.05 10.2 0 5.7 2.35 10.9t6.55 8.95q2.6 2.6 3.45 8.1 0.25 1.75 0.3 3.55 0 1.45-0.05 1.5 0 0.75 0.45 1.25 0.25 0.2 0.55 0.3 0.3 0.15 0.6 0.15h24.2q0.7 0 1.15-0.45 0.5-0.5 0.5-1.25-0.15-2.3 0.25-5.05 0.8-5.5 3.45-8.1l0.25-0.3q4.15-3.8 6.45-8.9t2.3-10.6q0-5.3-2.1-10.2-2-4.75-5.65-8.4t-8.4-5.65m-10.3 1.05q4.7 0 9 1.8 4.15 1.75 7.35 4.95t4.95 7.35q1.8 4.3 1.8 9.05 0 5-2.05 9.6-2.05 4.55-5.8 7.8-0.3 0.3-0.3 0.4-2.4 2.6-3.55 7.15-0.8 3.05-0.9 6.5h-21q-0.1-3.55-0.9-6.65-1.2-4.7-3.8-7.4-3.8-3.25-5.9-7.8-2.1-4.6-2.1-9.6 0-4.75 1.85-9.05 1.75-4.15 4.95-7.35t7.35-4.95q4.3-1.8 9-1.8z"/>
  </g>
  <g id="c">
   <path  fill="#7238a3"  d="m46.6 22.6q0.5 0.5 1.15 0.5 3.5 0 6.7 1.35 3.1 1.3 5.5 3.7t3.7 5.5q1.35 3.2 1.35 6.65 0 0.65 0.45 1.15 0.5 0.5 1.15 0.5t1.1-0.5q0.5-0.5 0.5-1.15 0.05-4.15-1.55-7.95-1.55-3.65-4.35-6.5-2.85-2.85-6.55-4.4-3.8-1.6-8-1.6-0.65 0-1.15 0.5-0.45 0.5-0.45 1.1 0 0.65 0.45 1.15z"/>
  </g>
  <g id="b">
   <path  fill="#7238a3"  d="m33.3 79.8q0 1.65 1.15 2.85 1.2 1.15 2.8 1.15h21q1.75-0.05 2.9-1.2 1.2-1.15 1.2-2.8 0-1.6-1.2-2.8-1.15-1.15-2.8-1.15h-21q-1.6 0-2.8 1.15-1.15 1.2-1.15 2.8m3.4-0.65q0.2-0.2 0.55-0.2h21q0.3 0 0.55 0.2 0.2 0.25 0.2 0.6t-0.15 0.55q-0.2 0.2-0.5 0.2h-21q-0.25 0-0.5-0.2-0.25-0.25-0.25-0.55 0-0.4 0.2-0.6z"/>
  </g>
  <g id="a">
   <path  fill="#7238a3"  d="m37.6 92.2q1.15 1.15 2.8 1.15h14.8q1.6 0 2.8-1.15 1.15-1.15 1.15-2.8 0-1.7-1.15-2.85t-2.8-1.15h-14.8q-1.65 0-2.8 1.2-1.2 1.15-1.2 2.8t1.2 2.8m2.25-3.45q0.2-0.2 0.55-0.2h14.8q0.3 0 0.5 0.2 0.25 0.2 0.25 0.55t-0.25 0.55q-0.2 0.2-0.5 0.2h-14.8q-0.3 0-0.5-0.2-0.25-0.2-0.25-0.55t0.2-0.55z"/>
  </g>
 </defs>
 <g transform="translate(-4.32 -6.02)">
  <g transform="matrix(-.11 0 0 .115 12.5 4.77)">
   <g transform="translate(0,-2.25)">
    <use width="100%" height="100%" xlink:href="#d"/>
   </g>
   <g transform="translate(0,-2.25)">
    <use width="100%" height="100%" xlink:href="#c"/>
   </g>
   <g transform="translate(0,-2.25)">
    <use width="100%" height="100%" xlink:href="#b"/>
   </g>
   <g transform="translate(0,-2.25)">
    <use width="100%" height="100%" xlink:href="#a"/>
   </g>
  </g>
 </g>
</svg>
