<?xml version="1.0" encoding="UTF-8" standalone="no"?>
<svg
   xmlns:dc="http://purl.org/dc/elements/1.1/"
   xmlns:cc="http://creativecommons.org/ns#"
   xmlns:rdf="http://www.w3.org/1999/02/22-rdf-syntax-ns#"
   xmlns:svg="http://www.w3.org/2000/svg"
   xmlns="http://www.w3.org/2000/svg"
   height="55.869766"
   width="65.547218"
   id="svg10"
   version="1.1"
   y="0px"
   x="0px"
   viewBox="0 0 65.547218 55.869767"
   data-name="Layer 1">
  <metadata
     id="metadata16">
    <rdf:RDF>
      <cc:Work
         rdf:about="">
        <dc:format>image/svg+xml</dc:format>
        <dc:type
           rdf:resource="http://purl.org/dc/dcmitype/StillImage" />
        <dc:title>32</dc:title>
      </cc:Work>
    </rdf:RDF>
  </metadata>
  <defs
     id="defs14" />
  <title
     id="title2">32</title>
  <path
     style="fill:#373737;fill-opacity:1"
     clip-path="none"
     id="path4"
     d="m 64.99,7.9297664 -6.4,-7.17999951 a 2.29,2.29 0 0 0 -3.11,-0.26 L 44.01,9.6797666 H 5.7700004 A 5.77,5.77 0 0 0 4.3495145e-7,15.439767 v 34.66 A 5.77,5.77 0 0 0 5.7700004,55.869767 H 47.43 a 5.77,5.77 0 0 0 5.76,-5.77 v -30 l 11.58,-9.17 A 2,2 0 0 0 65.54,9.5197666 2.08,2.08 0 0 0 64.99,7.9297664 Z M 50.61,50.109767 a 3.17,3.17 0 0 1 -3.16,3.16 H 5.7700004 a 3.17,3.17 0 0 1 -3.16,-3.16 v -34.67 a 3.17,3.17 0 0 1 3.16,-3.16 H 40.77 l -17.8,14.26 -4.77,11.81 a 0.9,0.9 0 0 0 0.15,1 1,1 0 0 0 0.74,0.34 h 0.23 l 12.9,-2.76 18.39,-14.71 v 27.91 z m -28.57,-13.23 v 0 a 0.47,0.47 0 0 1 -0.46,-0.15 0.42,0.42 0 0 1 -0.08,-0.42 l 2.29,-6.17 5,5.61 z M 62.32,9.2097666 a 1.53,1.53 0 0 1 -0.57,1.0600004 l -29.38,23.55 -6.13,-6.89 29.32,-23.5200004 a 1.8,1.8 0 0 1 2.43,0.2 l 3.93,4.3899998 a 1.58,1.58 0 0 1 0.4,1.2000002 z" />
</svg>
